<svg width="193" height="267" viewBox="0 0 193 267" fill="none" xmlns="http://www.w3.org/2000/svg">
<path d="M87.1135 2.19339C116.613 7.54022 127.113 24.1934 138.614 58.6934L96.6135 58.6934C94.6135 53.1934 88.0754 45.129 76.6135 44.1933C52.1135 42.1934 38.6135 77.1934 70.6135 98.6934C81.324 105.89 148.113 142.693 143.613 166.193C141.285 178.352 148.613 171.693 148.613 178.693C148.613 178.693 79.5171 228.587 80.6135 227.693C134.613 183.693 82.3576 152.666 56.1135 137.693C-21.8865 93.1934 7.11343 -12.3065 87.1135 2.19339Z" fill="white" fill-opacity="0.5"/>
<path d="M53.6135 266.193C-28.3955 266.193 6.70432 186.364 17.4161 165.26C19.0354 162.069 22.3187 160.193 25.8964 160.193H55.4552C60.3352 160.193 63.29 165.763 60.7018 169.9C49.1189 188.416 28.16 227.292 53.6135 231.193C91.3826 236.982 112.113 194.618 112.113 160.193C112.113 95.6934 96.6135 58.6934 96.6135 58.6934L52.7024 58.6934C48.2159 58.6934 44.2786 55.7054 43.0713 51.3844L39.1595 37.3844C37.3782 31.0091 42.1711 24.6934 48.7906 24.6934H179.579C184.272 24.6934 188.333 27.9566 189.344 32.5393L192.432 46.5393C193.809 52.7803 189.058 58.6934 182.667 58.6934L138.614 58.6934C138.614 58.6934 150.613 91.6934 150.613 160.193C150.613 184.323 145.613 266.193 53.6135 266.193Z" fill="white" style="mix-blend-mode:luminosity"/>
<path d="M30.621 142.892L27.1055 150.425C26.1773 152.414 27.6292 154.693 29.8241 154.693H44.3881C47.3402 154.693 48.5172 150.878 46.0781 149.215L35.0295 141.682C33.5012 140.64 31.4032 141.215 30.621 142.892Z" fill="white" fill-opacity="0.5"/>
</svg>
