<svg width="193" height="267" viewBox="0 0 193 267" fill="none" xmlns="http://www.w3.org/2000/svg">
<path d="M86.9062 2.1785C116.406 7.52532 126.906 24.1785 138.406 58.6785L96.4062 58.6785C94.4063 53.1785 87.8681 45.1141 76.4063 44.1785C51.9062 42.1785 38.4062 77.1785 70.4062 98.6785C81.1168 105.875 147.906 142.678 143.406 166.178C141.078 178.337 148.406 171.678 148.406 178.678C148.406 178.678 79.3099 228.572 80.4062 227.678C134.406 183.678 82.1503 152.651 55.9062 137.678C-22.0938 93.1785 6.90619 -12.3214 86.9062 2.1785Z" fill="#FF9357" fill-opacity="0.5"/>
<path d="M53.4062 266.178C-28.6027 266.178 6.49709 186.349 17.2089 165.245C18.8282 162.055 22.1114 160.178 25.6891 160.178H55.2479C60.128 160.178 63.0828 165.748 60.4946 169.886C48.9117 188.401 27.9528 227.278 53.4063 231.178C91.1753 236.967 111.906 194.603 111.906 160.178C111.906 95.6785 96.4062 58.6785 96.4062 58.6785L52.4951 58.6785C48.0087 58.6785 44.0714 55.6905 42.864 51.3695L38.9523 37.3695C37.1709 30.9942 41.9639 24.6785 48.5834 24.6785H179.372C184.065 24.6785 188.126 27.9417 189.137 32.5244L192.225 46.5244C193.602 52.7654 188.851 58.6785 182.46 58.6785L138.406 58.6785C138.406 58.6785 150.406 91.6785 150.406 160.178C150.406 184.308 145.406 266.178 53.4062 266.178Z" fill="#FF6B18"/>
<path d="M30.4137 142.877L26.8983 150.41C25.9701 152.399 27.422 154.678 29.6168 154.678H44.1808C47.1329 154.678 48.31 150.863 45.8708 149.2L34.8223 141.667C33.294 140.625 31.1959 141.201 30.4137 142.877Z" fill="#FF9357" fill-opacity="0.5"/>
</svg>
