<svg width="208" height="147" viewBox="0 0 208 147" fill="none" xmlns="http://www.w3.org/2000/svg">
<path d="M147.787 19.5215C149.025 17.6046 151.378 16.8335 153.389 17.9043C158.206 20.4694 168.046 26.6349 183.364 40.4209C202.624 57.7556 206.341 69.2786 207.031 72.4541C207.158 73.0346 207.093 73.6249 206.842 74.1631C205.796 76.4048 201.771 83.6234 187.332 100.95C173.937 117.024 159.73 125.759 153.164 129.25C151.046 130.376 148.503 129.612 147.187 127.604L142.334 120.194C140.985 118.135 141.345 115.399 143.181 113.759L184.2 77.1104C186.445 75.1051 186.435 71.5894 184.179 69.5967L143.625 33.7686C141.782 32.1401 141.406 29.4093 142.74 27.3428L147.787 19.5215Z" fill="#B0B0B0" stroke="#B0B0B0" stroke-width="0.05"/>
<path d="M59.4211 127.82C58.184 129.737 55.8303 130.508 53.8196 129.438C49.0028 126.872 39.1628 120.707 23.845 106.921C4.58427 89.5862 0.867942 78.0632 0.177002 74.8877C0.0507135 74.3072 0.115296 73.7169 0.366455 73.1787C1.41264 70.937 5.43729 63.7184 19.8762 46.3916C33.2712 30.3177 47.4782 21.5827 54.0442 18.0918C56.1626 16.9657 58.7058 17.7296 60.0217 19.7383L64.8743 27.1475C66.2232 29.2069 65.8634 31.9428 64.0276 33.583L23.0081 70.2314C20.7636 72.2367 20.774 75.7524 23.0295 77.7451L63.5833 113.573C65.4264 115.202 65.8026 117.932 64.469 119.999L59.4211 127.82Z" fill="#B0B0B0" stroke="#B0B0B0" stroke-width="0.05"/>
<path d="M79.8625 137.899C79.8625 137.899 87.1279 121.721 92.1952 108.286C97.2625 94.8502 101.091 83.879 105.676 69.3927C110.373 54.5566 112.227 47.5005 117.41 33.8226C122.368 20.7422 128.93 9.00152 128.93 9.00152" stroke="#B0B0B0" stroke-width="18" stroke-linecap="round"/>
</svg>
